<svg width="14" height="14" viewBox="0 0 14 14" fill="none" xmlns="http://www.w3.org/2000/svg">
<path d="M13.6216 11.795C14.126 12.2994 14.126 13.1173 13.6216 13.6217C13.1172 14.1261 12.2994 14.1261 11.795 13.6217L6.99999 8.82669L2.20501 13.6217C1.70058 14.1261 0.882763 14.1261 0.378349 13.6217C-0.126078 13.1173 -0.126078 12.2994 0.378349 11.795L5.17332 7.00004L0.37831 2.20499C-0.126103 1.70057 -0.126103 0.88273 0.37831 0.378313C0.882724 -0.126104 1.70056 -0.126104 2.20497 0.378313L6.99999 5.17335L11.795 0.378313C12.2994 -0.126104 13.1172 -0.126104 13.6216 0.378313C14.1261 0.88273 14.1261 1.70057 13.6216 2.20499L8.82663 7.00004L13.6216 11.795Z" fill="#FE5656"/>
</svg>
