<svg width="18" height="18" viewBox="0 0 18 18" fill="none" xmlns="http://www.w3.org/2000/svg">
<path fill-rule="evenodd" clip-rule="evenodd" d="M9 0C4.02944 0 0 4.02944 0 9C0 13.9706 4.02944 18 9 18C13.9706 18 18 13.9706 18 9C18 4.02944 13.9706 0 9 0ZM11.1657 6.6882C11.4229 6.35486 11.9015 6.29309 12.2349 6.55024C12.5682 6.8074 12.63 7.2861 12.3729 7.61944L9.3198 11.5772C9.2157 11.7122 9.0943 11.8697 8.97217 11.9889C8.82663 12.1309 8.5862 12.314 8.23666 12.3313C7.88712 12.3486 7.62979 12.1901 7.47093 12.0632C7.3376 11.9567 7.20123 11.8119 7.08436 11.6878L5.67617 10.1943C5.38735 9.8879 5.40154 9.4055 5.70786 9.1167C6.01419 8.82784 6.49664 8.84203 6.78546 9.1484L8.15079 10.5964L11.1657 6.6882Z" fill="#23B231"/>
</svg>
