<svg width="14" height="14" viewBox="0 0 14 14" fill="none" xmlns="http://www.w3.org/2000/svg">
<path fill-rule="evenodd" clip-rule="evenodd" d="M7 0C3.13401 0 0 3.13401 0 7C0 10.866 3.13401 14 7 14C10.866 14 14 10.866 14 7C14 3.13401 10.866 0 7 0ZM8.68443 5.20193C8.88448 4.94267 9.25672 4.89463 9.51603 5.09463C9.77527 5.29464 9.82333 5.66697 9.62337 5.92623L7.24873 9.00449C7.16777 9.10949 7.07334 9.23199 6.97835 9.3247C6.86516 9.43514 6.67816 9.57756 6.40629 9.59101C6.13443 9.60447 5.93428 9.48119 5.81072 9.38249C5.70702 9.29966 5.60096 9.18703 5.51006 9.09051L4.4148 7.9289C4.19016 7.69059 4.2012 7.31539 4.43945 7.09077C4.6777 6.8661 5.05294 6.87713 5.27758 7.11542L6.3395 8.24164L8.68443 5.20193Z" fill="#888888"/>
</svg>
