<svg width="18" height="19" viewBox="0 0 18 19" fill="none" xmlns="http://www.w3.org/2000/svg">
<path d="M14.157 2.04498L15.127 2.91374C15.6228 3.35774 16.0501 3.74032 16.3508 4.09246C16.6731 4.46986 16.9245 4.89522 16.953 5.43418C16.9815 5.97315 16.7764 6.42243 16.4957 6.83142C16.2338 7.21306 15.8493 7.63816 15.4031 8.13154L7.68947 16.661C7.26875 17.127 6.93599 17.4956 6.49506 17.7258C6.05413 17.9559 5.56024 18.0187 4.93579 18.0982L3.07287 18.3368C2.57676 18.4004 2.12816 18.4579 1.76259 18.4534C1.36385 18.4485 0.929719 18.371 0.565329 18.0447C0.200939 17.7183 0.0779191 17.2968 0.0311291 16.9028C-0.0117809 16.5414 -0.00140892 16.0914 0.0100691 15.5937L0.0528792 13.7252C0.0666992 13.0989 0.0776391 12.6035 0.261299 12.143C0.444969 11.6824 0.778369 11.3144 1.1999 10.8491L8.91363 2.3197C9.3598 1.82628 9.7442 1.40114 10.0981 1.1019C10.4774 0.781194 10.9048 0.531014 11.4464 0.502634C11.988 0.474259 12.4395 0.678384 12.8505 0.957684C13.234 1.21828 13.6612 1.60092 14.157 2.04498Z" fill="black"/>
<path d="M10.2251 17.0024C9.80956 17.0024 9.47266 17.3377 9.47266 17.7512C9.47266 18.1648 9.80956 18.5 10.2251 18.5H17.248C17.6636 18.5 18.0005 18.1648 18.0005 17.7512C18.0005 17.3377 17.6636 17.0024 17.248 17.0024H10.2251Z" fill="black"/>
</svg>
