<svg width="15" height="14" viewBox="0 0 15 14" fill="none" xmlns="http://www.w3.org/2000/svg">
<path fill-rule="evenodd" clip-rule="evenodd" d="M14.5 7C14.5 10.866 11.366 14 7.5 14C3.634 14 0.5 10.866 0.5 7C0.5 3.134 3.634 0 7.5 0C11.366 0 14.5 3.134 14.5 7ZM8.025 3.5C8.025 3.21005 7.78994 2.975 7.5 2.975C7.21005 2.975 6.975 3.21005 6.975 3.5V7C6.975 7.19887 7.08735 7.38066 7.26521 7.46956L9.36522 8.51956C9.62457 8.64927 9.93992 8.54413 10.0696 8.28478C10.1993 8.02543 10.0941 7.71008 9.83478 7.58044L8.025 6.67553V3.5Z" fill="#CD8210"/>
</svg>
