<svg width="18" height="14" viewBox="0 0 18 14" fill="none" xmlns="http://www.w3.org/2000/svg">
<path fill-rule="evenodd" clip-rule="evenodd" d="M9.66827 0H4.75388C2.74859 0 1.74594 -5.21541e-08 1.12297 0.640701C0.5 1.28141 0.5 2.31261 0.5 4.375L0.500002 10.29C0.500002 11.2884 1.22582 12.1124 2.16438 12.2344C2.43032 13.2514 3.33314 14 4.40595 14C5.47329 14 6.37236 13.2591 6.6434 12.25H9.94214C10.2132 13.2591 11.1123 14 12.1796 14C13.2401 14 14.1345 13.2685 14.4118 12.2692C14.9519 12.2692 15.4185 12.2674 15.7949 12.2153C16.2132 12.1575 16.6141 12.0271 16.9393 11.6926C17.2646 11.3581 17.3914 10.9458 17.4476 10.5156C17.5001 10.1142 17.5 9.61301 17.5 9.03123V7.60559C17.5 7.13869 17.5 6.74458 17.4711 6.4195C17.4405 6.07605 17.3742 5.75599 17.2111 5.45048C17.1031 5.2483 16.9674 5.06314 16.8082 4.90069C16.5676 4.65519 16.2867 4.50145 15.9742 4.37657C15.6784 4.25835 15.31 4.14975 14.8736 4.02109L13.2616 3.54576C13.2613 2.2348 13.2507 1.56155 12.9573 1.06001C12.7782 0.753699 12.5289 0.497193 12.231 0.312953C11.7251 5.21541e-08 11.0395 0 9.66827 0ZM13.2616 4.91115V9.50057C13.8155 9.80122 14.2368 10.3256 14.4118 10.9567C14.9738 10.9565 15.3463 10.9531 15.6249 10.9146C15.9017 10.8762 15.9884 10.8145 16.037 10.7645C16.0855 10.7146 16.1456 10.6254 16.1828 10.3407C16.2225 10.0372 16.2238 9.62526 16.2238 8.988V8.29071H14.9633C14.6109 8.29071 14.3252 7.99689 14.3252 7.63446C14.3252 7.27204 14.6108 6.97824 14.9632 6.97824L16.2203 6.97823C16.2173 6.80702 16.2114 6.66425 16.2003 6.53921C16.1783 6.29276 16.1395 6.17031 16.0925 6.08231C16.0434 5.99042 15.9817 5.90625 15.9094 5.83241C15.8401 5.7617 15.7363 5.6896 15.512 5.59998C15.2771 5.50611 14.9655 5.41355 14.4948 5.27478L13.2616 4.91115ZM4.40595 12.6875C4.06078 12.6875 3.75469 12.5154 3.56444 12.25C3.43663 12.0718 3.36109 11.8513 3.36109 11.6129C3.36109 11.0194 3.82889 10.5383 4.40595 10.5383C4.98301 10.5383 5.45082 11.0194 5.45082 11.6129C5.45082 11.8513 5.37528 12.0718 5.24747 12.25C5.05722 12.5154 4.75113 12.6875 4.40595 12.6875ZM12.1796 12.6875C11.8332 12.6875 11.5263 12.5142 11.3361 12.2473C11.2095 12.0695 11.1347 11.8502 11.1347 11.6129C11.1347 11.0194 11.6025 10.5383 12.1796 10.5383C12.6469 10.5383 13.0426 10.8539 13.1761 11.2891C13.2075 11.3913 13.2244 11.5 13.2244 11.6129C13.2244 12.2064 12.7567 12.6875 12.1796 12.6875Z" fill="#23B231"/>
</svg>
