<svg width="18" height="16" viewBox="0 0 18 16" fill="none" xmlns="http://www.w3.org/2000/svg">
<path fill-rule="evenodd" clip-rule="evenodd" d="M0 1.25C0 0.835786 0.335786 0.5 0.75 0.5H12C12.4142 0.5 12.75 0.835786 12.75 1.25V4.25H15C15.1989 4.25 15.3897 4.32902 15.5303 4.46967L17.7803 6.71967C17.921 6.86032 18 7.05109 18 7.25V11C18 11.4142 17.6642 11.75 17.25 11.75H0.75C0.335786 11.75 0 11.4142 0 11V1.25Z" fill="black"/>
<path fill-rule="evenodd" clip-rule="evenodd" d="M4.125 11.75C3.50368 11.75 3 12.2537 3 12.875C3 13.4963 3.50368 14 4.125 14C4.74632 14 5.25 13.4963 5.25 12.875C5.25 12.2537 4.74632 11.75 4.125 11.75ZM1.5 12.875C1.5 11.4253 2.67525 10.25 4.125 10.25C5.57475 10.25 6.75 11.4253 6.75 12.875C6.75 14.3247 5.57475 15.5 4.125 15.5C2.67525 15.5 1.5 14.3247 1.5 12.875Z" fill="black"/>
<path fill-rule="evenodd" clip-rule="evenodd" d="M13.875 11.75C13.2537 11.75 12.75 12.2537 12.75 12.875C12.75 13.4963 13.2537 14 13.875 14C14.4963 14 15 13.4963 15 12.875C15 12.2537 14.4963 11.75 13.875 11.75ZM11.25 12.875C11.25 11.4253 12.4253 10.25 13.875 10.25C15.3247 10.25 16.5 11.4253 16.5 12.875C16.5 14.3247 15.3247 15.5 13.875 15.5C12.4253 15.5 11.25 14.3247 11.25 12.875Z" fill="black"/>
</svg>
